<?xml version="1.0" encoding="UTF-8" standalone="no"?>
<!-- Created with Inkscape (http://www.inkscape.org/) -->

<svg
   xmlns:dc="http://purl.org/dc/elements/1.1/"
   xmlns:cc="http://creativecommons.org/ns#"
   xmlns:rdf="http://www.w3.org/1999/02/22-rdf-syntax-ns#"
   xmlns:svg="http://www.w3.org/2000/svg"
   xmlns="http://www.w3.org/2000/svg"
   xmlns:sodipodi="http://sodipodi.sourceforge.net/DTD/sodipodi-0.dtd"
   xmlns:inkscape="http://www.inkscape.org/namespaces/inkscape"
   width="147.88058mm"
   height="39.421349mm"
   viewBox="0 0 523.98633 139.68194"
   id="svg2"
   version="1.1"
   inkscape:version="0.91 r13725"
   sodipodi:docname="logoBlackEditable.svg">
  <defs
     id="defs4" />
  <sodipodi:namedview
     id="base"
     pagecolor="#ffffff"
     bordercolor="#666666"
     borderopacity="1.0"
     inkscape:pageopacity="0.0"
     inkscape:pageshadow="2"
     inkscape:zoom="0.5"
     inkscape:cx="142.23318"
     inkscape:cy="81.995763"
     inkscape:document-units="px"
     inkscape:current-layer="layer1"
     showgrid="true"
     inkscape:snap-grids="false"
     inkscape:snap-text-baseline="false"
     inkscape:snap-to-guides="true"
     inkscape:window-width="1538"
     inkscape:window-height="892"
     inkscape:window-x="103"
     inkscape:window-y="0"
     inkscape:window-maximized="0"
     fit-margin-top="0"
     fit-margin-left="0"
     fit-margin-right="0"
     fit-margin-bottom="0">
    <inkscape:grid
       type="xygrid"
       id="grid4219"
       originx="-28.464294"
       originy="-897.49998" />
  </sodipodi:namedview>
  <metadata
     id="metadata7">
    <rdf:RDF>
      <cc:Work
         rdf:about="">
        <dc:format>image/svg+xml</dc:format>
        <dc:type
           rdf:resource="http://purl.org/dc/dcmitype/StillImage" />
        <dc:title></dc:title>
      </cc:Work>
    </rdf:RDF>
  </metadata>
  <g
     inkscape:label="Layer 1"
     inkscape:groupmode="layer"
     id="layer1"
     transform="translate(-28.464294,-15.180236)">
    <g
       id="g3379">
      <path
         inkscape:connector-curvature="0"
         d="m 28.464294,31.862183 15,0 0,94.499997 -15,0 0,-94.499997 z"
         style="font-style:normal;font-variant:normal;font-weight:900;font-stretch:normal;font-size:125px;line-height:100%;font-family:Avenir;-inkscape-font-specification:'Avenir, Heavy';text-align:start;letter-spacing:0px;word-spacing:0px;writing-mode:lr-tb;text-anchor:start;fill:#000000;fill-opacity:1;stroke:none;stroke-width:1px;stroke-linecap:butt;stroke-linejoin:miter;stroke-opacity:1"
         id="path4244" />
      <path
         inkscape:connector-curvature="0"
         d="m 98.184998,118.11218 -0.375,0 q -3.25,5.125 -8.25,7.5 -5,2.25 -11,2.25 -4.125,0 -8.125,-1.125 -3.875,-1.125 -7,-3.375 -3,-2.25 -4.875,-5.625 -1.875,-3.375 -1.875,-7.875 0,-4.875 1.75,-8.25 1.75,-3.499997 4.625,-5.749997 3,-2.375 6.875,-3.75 3.875,-1.375 8,-2 4.25,-0.75 8.5,-0.875 4.25,-0.25 8,-0.25 l 3.75,0 0,-1.625 q 0,-5.625 -3.875,-8.375 -3.875,-2.875 -9.875,-2.875 -4.75,0 -8.875,1.75 -4.125,1.625 -7.125,4.5 l -7.875,-7.875 q 5,-5.125 11.625,-7.375 6.75,-2.25 13.875,-2.25 6.375,0 10.75,1.5 4.375002,1.375 7.250002,3.625 2.875,2.25 4.375,5.25 1.625,2.875 2.25,5.875 0.75,3 0.875,5.875 0.125,2.75 0.125,4.875 l 0,34.499997 -13.500002,0 0,-8.25 z m -0.875,-18.624997 -3.125,0 q -3.125,0 -7,0.25 -3.875,0.25 -7.375,1.249997 -3.375,0.875 -5.75,2.75 -2.375,1.75 -2.375,5 0,2.125 0.875,3.625 1,1.375 2.5,2.375 1.5,1 3.375,1.5 1.875,0.375 3.75,0.375 7.75,0 11.375,-3.625 3.75,-3.75 3.75,-10.125 l 0,-3.374997 z"
         style="font-style:normal;font-variant:normal;font-weight:900;font-stretch:normal;font-size:125px;line-height:100%;font-family:Avenir;-inkscape-font-specification:'Avenir, Heavy';text-align:start;letter-spacing:0px;word-spacing:0px;writing-mode:lr-tb;text-anchor:start;fill:#000000;fill-opacity:1;stroke:none;stroke-width:1px;stroke-linecap:butt;stroke-linejoin:miter;stroke-opacity:1"
         id="path4246" />
      <path
         inkscape:connector-curvature="0"
         d="m 127.19867,66.362183 14.25,0 0,9.375 0.25,0 q 2,-4.25 6.375,-7.5 4.5,-3.375 12,-3.375 14.125,0 18.75,11.125 3.25,-5.75 8.125,-8.375 4.875,-2.75 11.625,-2.75 6,0 10.125,2 4.125,2 6.625,5.5 2.625,3.5 3.75,8.25 1.125,4.625 1.125,10 l 0,35.749997 -15,0 0,-33.999997 q 0,-2.75 -0.5,-5.25 -0.5,-2.625 -1.75,-4.5 -1.25,-2 -3.375,-3.125 -2.125,-1.125 -5.5,-1.125 -3.5,0 -6,1.375 -2.375,1.25 -4,3.5 -1.5,2.125 -2.25,5 -0.625,2.75 -0.625,5.625 l 0,32.499997 -15,0 0,-35.749997 q 0,-5.625 -2.375,-8.875 -2.375,-3.375 -7.875,-3.375 -3.75,0 -6.375,1.25 -2.5,1.25 -4.25,3.375 -1.625,2.125 -2.375,4.875 -0.75,2.75 -0.75,5.75 l 0,32.749997 -15,0 0,-59.999997 z"
         style="font-style:normal;font-variant:normal;font-weight:900;font-stretch:normal;font-size:125px;line-height:100%;font-family:Avenir;-inkscape-font-specification:'Avenir, Heavy';text-align:start;letter-spacing:0px;word-spacing:0px;writing-mode:lr-tb;text-anchor:start;fill:#000000;fill-opacity:1;stroke:none;stroke-width:1px;stroke-linecap:butt;stroke-linejoin:miter;stroke-opacity:1"
         id="path4248" />
      <path
         inkscape:connector-curvature="0"
         d="m 236.46625,66.362183 14.25,0 0,9 0.25,0 q 3.25,-5.5 8.75,-8 5.5,-2.5 11.875,-2.5 6.875,0 12.375,2.5 5.5,2.375 9.375,6.625 3.875,4.25 5.875,10 2,5.75 2,12.375 0,6.624997 -2.125,12.374997 -2.125,5.75 -6,10 -3.75,4.25 -9.125,6.75 -5.375,2.375 -11.75,2.375 -4.25,0 -7.5,-0.875 -3.25,-0.875 -5.75,-2.25 -2.5,-1.375 -4.25,-2.875 -1.75,-1.625 -2.875,-3.125 l -0.375,0 0,36.125 -15,0 0,-88.499997 z m 49.75,30 q 0,-3.5 -1.25,-6.75 -1.125,-3.25 -3.5,-5.75 -2.25,-2.5 -5.5,-4 -3.25,-1.5 -7.375,-1.5 -4.125,0 -7.375,1.5 -3.25,1.5 -5.625,4 -2.25,2.5 -3.5,5.75 -1.125,3.25 -1.125,6.75 0,3.5 1.125,6.749997 1.25,3.25 3.5,5.75 2.375,2.5 5.625,4 3.25,1.5 7.375,1.5 4.125,0 7.375,-1.5 3.25,-1.5 5.5,-4 2.375,-2.5 3.5,-5.75 1.25,-3.249997 1.25,-6.749997 z"
         style="font-style:normal;font-variant:normal;font-weight:900;font-stretch:normal;font-size:125px;line-height:100%;font-family:Avenir;-inkscape-font-specification:'Avenir, Heavy';text-align:start;letter-spacing:0px;word-spacing:0px;writing-mode:lr-tb;text-anchor:start;fill:#000000;fill-opacity:1;stroke:none;stroke-width:1px;stroke-linecap:butt;stroke-linejoin:miter;stroke-opacity:1"
         id="path4250" />
      <path
         inkscape:connector-curvature="0"
         d="m 316.69867,37.862183 29.75,0 q 6.375,0 12.25,1.25 6,1.25 10.5,4.25 4.5,2.875 7.125,7.875 2.75,4.875 2.75,12.25 0,8.375 -2.875,13.5 -2.875,5.125 -7.75,8 -4.875,2.75 -11.375,3.75 -6.375,1 -13.375,1 l -11.25,0 0,36.624997 -15.75,0 0,-88.499997 z m 25.25,38.375 q 3.375,0 7,-0.25 3.625,-0.25 6.625,-1.5 3.125,-1.25 5,-3.75 2,-2.5 2,-7 0,-4.125 -1.75,-6.5 -1.75,-2.5 -4.5,-3.75 -2.75,-1.375 -6.125,-1.75 -3.375,-0.375 -6.5,-0.375 l -11.25,0 0,24.875 9.5,0 z"
         style="font-style:normal;font-variant:normal;font-weight:900;font-stretch:normal;font-size:125px;line-height:100%;font-family:Avenir;-inkscape-font-specification:'Avenir, Heavy';text-align:start;letter-spacing:0px;word-spacing:0px;writing-mode:lr-tb;text-anchor:start;fill:#000000;fill-opacity:1;stroke:none;stroke-width:1px;stroke-linecap:butt;stroke-linejoin:miter;stroke-opacity:1"
         id="path4252" />
      <path
         inkscape:connector-curvature="0"
         d="m 380.73969,96.362183 q 0,-7.125 2.5,-12.875 2.625,-5.875 7,-10 4.375,-4.125 10.375,-6.375 6,-2.25 12.75,-2.25 6.75,0 12.75,2.25 6,2.25 10.375,6.375 4.375,4.125 6.875,10 2.625,5.75 2.625,12.875 0,7.124997 -2.625,12.999997 -2.5,5.75 -6.875,9.875 -4.375,4.125 -10.375,6.375 -6,2.25 -12.75,2.25 -6.75,0 -12.75,-2.25 -6,-2.25 -10.375,-6.375 -4.375,-4.125 -7,-9.875 -2.5,-5.875 -2.5,-12.999997 z m 15,0 q 0,3.5 1.125,6.749997 1.25,3.25 3.5,5.75 2.375,2.5 5.625,4 3.25,1.5 7.375,1.5 4.125,0 7.375,-1.5 3.25,-1.5 5.5,-4 2.375,-2.5 3.5,-5.75 1.25,-3.249997 1.25,-6.749997 0,-3.5 -1.25,-6.75 -1.125,-3.25 -3.5,-5.75 -2.25,-2.5 -5.5,-4 -3.25,-1.5 -7.375,-1.5 -4.125,0 -7.375,1.5 -3.25,1.5 -5.625,4 -2.25,2.5 -3.5,5.75 -1.125,3.25 -1.125,6.75 z"
         style="font-style:normal;font-variant:normal;font-weight:900;font-stretch:normal;font-size:125px;line-height:100%;font-family:Avenir;-inkscape-font-specification:'Avenir, Heavy';text-align:start;letter-spacing:0px;word-spacing:0px;writing-mode:lr-tb;text-anchor:start;fill:#000000;fill-opacity:1;stroke:none;stroke-width:1px;stroke-linecap:butt;stroke-linejoin:miter;stroke-opacity:1"
         id="path4254" />
      <path
         inkscape:connector-curvature="0"
         d="m 492.1557,82.987183 q -4.375,-6.125 -11.75,-6.125 -3,0 -5.875,1.5 -2.875,1.5 -2.875,4.875 0,2.75 2.375,4 2.375,1.25 6,2.125 3.625,0.875 7.75,1.875 4.25,0.875 7.875,2.875 3.625,1.875 6,5.25 2.375,3.374997 2.375,9.249997 0,5.375 -2.375,9.125 -2.25,3.625 -6,5.875 -3.625,2.25 -8.25,3.25 -4.625,1 -9.25,1 -7,0 -12.875,-2 -5.875,-2 -10.5,-7.25 l 10,-9.375 q 2.875,3.25 6.125,5.375 3.375,2 8.125,2 1.625,0 3.375,-0.375 1.75,-0.375 3.25,-1.25 1.5,-0.875 2.375,-2.125 1,-1.375 1,-3.125 0,-3.125 -2.375,-4.625 -2.375,-1.5 -6,-2.375 -3.625,-1 -7.875,-1.75 -4.125,-0.875 -7.75,-2.624997 -3.625,-1.875 -6,-5.125 -2.375,-3.25 -2.375,-9 0,-5 2,-8.625 2.125,-3.75 5.5,-6.125 3.375,-2.375 7.75,-3.5 4.375,-1.125 8.875,-1.125 6,0 11.875,2.125 5.875,2 9.5,7 l -10,9 z"
         style="font-style:normal;font-variant:normal;font-weight:900;font-stretch:normal;font-size:125px;line-height:100%;font-family:Avenir;-inkscape-font-specification:'Avenir, Heavy';text-align:start;letter-spacing:0px;word-spacing:0px;writing-mode:lr-tb;text-anchor:start;fill:#000000;fill-opacity:1;stroke:none;stroke-width:1px;stroke-linecap:butt;stroke-linejoin:miter;stroke-opacity:1"
         id="path4256" />
      <path
         inkscape:connector-curvature="0"
         d="m 508.57562,79.112183 0,-12.75 12.375,0 0,-17.375 15,0 0,17.375 16.5,0 0,12.75 -16.5,0 0,26.249997 q 0,4.5 1.625,7.125 1.75,2.625 6.75,2.625 2,0 4.375,-0.375 2.375,-0.5 3.75,-1.5 l 0,12.625 q -2.375,1.125 -5.875,1.5 -3.375,0.5 -6,0.5 -6,0 -9.875,-1.375 -3.75,-1.25 -6,-3.875 -2.125,-2.75 -3,-6.75 -0.75,-4 -0.75,-9.25 l 0,-27.499997 -12.375,0 z"
         style="font-style:normal;font-variant:normal;font-weight:900;font-stretch:normal;font-size:125px;line-height:100%;font-family:Avenir;-inkscape-font-specification:'Avenir, Heavy';text-align:start;letter-spacing:0px;word-spacing:0px;writing-mode:lr-tb;text-anchor:start;fill:#000000;fill-opacity:1;stroke:none;stroke-width:1px;stroke-linecap:butt;stroke-linejoin:miter;stroke-opacity:1"
         id="path4258" />
      <g
         transform="translate(-8.2803301,3.800699)"
         id="g4177">
        <g
           transform="translate(0,-4.625)"
           id="g4195">
          <g
             transform="matrix(2.9532234,0,0,2.9532234,-620.94938,-552.93661)"
             id="g4141">
            <path
               style="fill:none;fill-rule:evenodd;stroke:#000000;stroke-width:1px;stroke-linecap:butt;stroke-linejoin:miter;stroke-opacity:1"
               d="m 391.67217,197.89503 -5.56268,0 z"
               id="path4179"
               inkscape:connector-curvature="0"
               sodipodi:nodetypes="ccc" />
            <path
               style="fill:#000000;fill-opacity:1;fill-rule:nonzero;stroke:none;stroke-width:1px;stroke-linecap:butt;stroke-linejoin:miter;stroke-opacity:1"
               d="m 385.91782,197.49526 c 0.0267,-0.0632 0.7032,-0.9796 1.50336,-2.03634 l 1.45485,-1.92136 1.49255,0 1.49258,0 0,2.03634 0,2.03634 -2.99593,0 c -1.64777,0 -2.97408,-0.0518 -2.94741,-0.11493 z"
               id="path4139"
               inkscape:connector-curvature="0" />
          </g>
          <g
             id="g4169"
             transform="matrix(-2.9532234,0,0,2.9532234,1694.4101,-552.93661)">
            <path
               sodipodi:nodetypes="cccccssccccc"
               inkscape:connector-curvature="0"
               id="path4171"
               d="m 388.74183,193.89683 2.85764,0 0,11.42336 -1.61597,0 -4.17201,-7.42515 c 0,0 1.45652,-3.25112 2.93034,-3.99821 1.94067,-0.98374 4.58662,-0.98374 6.52729,0 1.47382,0.74709 2.93034,3.99821 2.93034,3.99821 l -4.17201,7.42515 -1.61597,0 0,-11.42336 2.85764,0"
               style="fill:none;fill-rule:evenodd;stroke:#000000;stroke-width:1px;stroke-linecap:butt;stroke-linejoin:miter;stroke-opacity:1" />
            <path
               sodipodi:nodetypes="ccc"
               inkscape:connector-curvature="0"
               id="path4173"
               d="m 391.67217,197.89503 -5.56268,0 z"
               style="fill:none;fill-rule:evenodd;stroke:#000000;stroke-width:1px;stroke-linecap:butt;stroke-linejoin:miter;stroke-opacity:1" />
            <path
               inkscape:connector-curvature="0"
               id="path4175"
               d="m 385.91782,197.49526 c 0.0267,-0.0632 0.7032,-0.9796 1.50336,-2.03634 l 1.45485,-1.92136 1.49255,0 1.49258,0 0,2.03634 0,2.03634 -2.99593,0 c -1.64777,0 -2.97408,-0.0518 -2.94741,-0.11493 z"
               style="fill:#000000;fill-opacity:1;fill-rule:nonzero;stroke:none;stroke-width:1px;stroke-linecap:butt;stroke-linejoin:miter;stroke-opacity:1" />
          </g>
        </g>
      </g>
    </g>
  </g>
</svg>
