<?xml version="1.0" encoding="UTF-8" standalone="no"?>
<!-- Created with Inkscape (http://www.inkscape.org/) -->

<svg
   xmlns:dc="http://purl.org/dc/elements/1.1/"
   xmlns:cc="http://creativecommons.org/ns#"
   xmlns:rdf="http://www.w3.org/1999/02/22-rdf-syntax-ns#"
   xmlns:svg="http://www.w3.org/2000/svg"
   xmlns="http://www.w3.org/2000/svg"
   xmlns:sodipodi="http://sodipodi.sourceforge.net/DTD/sodipodi-0.dtd"
   xmlns:inkscape="http://www.inkscape.org/namespaces/inkscape"
   width="143.18657mm"
   height="33.866661mm"
   viewBox="0 0 507.35393 120.00001"
   id="svg4153"
   version="1.1"
   inkscape:version="0.91 r13725"
   sodipodi:docname="aboutAvenir.svg">
  <defs
     id="defs4155" />
  <sodipodi:namedview
     id="base"
     pagecolor="#c9c2ff"
     bordercolor="#666666"
     borderopacity="1.0"
     inkscape:pageopacity="0"
     inkscape:pageshadow="2"
     inkscape:zoom="1.4142136"
     inkscape:cx="262.13337"
     inkscape:cy="57.824852"
     inkscape:document-units="px"
     inkscape:current-layer="layer1"
     showgrid="false"
     fit-margin-top="0"
     fit-margin-left="0"
     fit-margin-right="0"
     fit-margin-bottom="0"
     inkscape:window-width="1461"
     inkscape:window-height="913"
     inkscape:window-x="125"
     inkscape:window-y="0"
     inkscape:window-maximized="0"
     inkscape:snap-text-baseline="true" />
  <metadata
     id="metadata4158">
    <rdf:RDF>
      <cc:Work
         rdf:about="">
        <dc:format>image/svg+xml</dc:format>
        <dc:type
           rdf:resource="http://purl.org/dc/dcmitype/StillImage" />
        <dc:title></dc:title>
      </cc:Work>
    </rdf:RDF>
  </metadata>
  <g
     inkscape:label="Layer 1"
     inkscape:groupmode="layer"
     id="layer1"
     transform="translate(-105.71433,-231.38007)">
    <g
       id="g4813">
      <g
         id="text4701"
         style="font-style:normal;font-variant:normal;font-weight:900;font-stretch:normal;font-size:156.25004578px;line-height:100%;font-family:Avenir;-inkscape-font-specification:'Avenir, Heavy';text-align:start;letter-spacing:0px;word-spacing:0px;writing-mode:lr-tb;text-anchor:start;fill:#333333;fill-opacity:1;stroke:none;stroke-width:1px;stroke-linecap:butt;stroke-linejoin:miter;stroke-opacity:1">
        <path
           id="path4803"
           style=""
           d="m 153.8393,238.88003 17.03126,0 47.65626,110.62504 -22.50001,0 -10.3125,-25.31251 -47.96876,0 -10.00001,25.31251 -22.03125,0 48.12501,-110.62504 z m 25.00001,68.43752 -17.03126,-45.00001 -17.34375,45.00001 34.37501,0 z" />
        <path
           id="path4805"
           style=""
           d="m 229.25436,231.38003 18.75,0 0,52.65627 0.46876,0 q 1.40625,-1.875 3.59375,-3.75 2.1875,-2.03125 5.3125,-3.75001 3.125,-1.71875 7.1875,-2.8125 4.0625,-1.09375 9.375,-1.09375 7.96875,0 14.68751,3.125 6.71875,2.96876 11.40625,8.28126 4.84375,5.3125 7.5,12.5 2.65625,7.1875 2.65625,15.46875 0,8.28126 -2.5,15.46876 -2.5,7.1875 -7.34375,12.5 -4.84375,5.3125 -11.71875,8.43751 -6.87501,2.96875 -15.46876,2.96875 -7.96875,0 -14.84375,-3.125 -6.875,-3.12501 -10.93751,-10.00001 l -0.3125,0 0,11.25001 -17.8125,0 0,-118.12504 z m 62.18752,80.62502 q 0,-4.375 -1.5625,-8.4375 -1.40625,-4.0625 -4.375,-7.1875 -2.8125,-3.125 -6.87501,-5 -4.0625,-1.875 -9.21875,-1.875 -5.15625,0 -9.21875,1.875 -4.0625,1.875 -7.03125,5 -2.8125,3.125 -4.375,7.1875 -1.40626,4.0625 -1.40626,8.4375 0,4.37501 1.40626,8.43751 1.5625,4.0625 4.375,7.1875 2.96875,3.125 7.03125,5 4.0625,1.875 9.21875,1.875 5.15625,0 9.21875,-1.875 4.06251,-1.875 6.87501,-5 2.96875,-3.125 4.375,-7.1875 1.5625,-4.0625 1.5625,-8.43751 z" />
        <path
           id="path4807"
           style=""
           d="m 324.07617,312.00505 q 0,-8.90625 3.125,-16.09375 3.28125,-7.34375 8.75,-12.5 5.46875,-5.15625 12.96875,-7.96876 7.50001,-2.8125 15.93751,-2.8125 8.4375,0 15.9375,2.8125 7.50001,2.81251 12.96876,7.96876 5.46875,5.15625 8.59375,12.5 3.28125,7.1875 3.28125,16.09375 0,8.90626 -3.28125,16.25001 -3.125,7.1875 -8.59375,12.34375 -5.46875,5.15625 -12.96876,7.96876 -7.5,2.8125 -15.9375,2.8125 -8.4375,0 -15.93751,-2.8125 -7.5,-2.81251 -12.96875,-7.96876 -5.46875,-5.15625 -8.75,-12.34375 -3.125,-7.34375 -3.125,-16.25001 z m 18.75,0 q 0,4.37501 1.40625,8.43751 1.5625,4.0625 4.375,7.1875 2.96875,3.125 7.03126,5 4.0625,1.875 9.21875,1.875 5.15625,0 9.21875,-1.875 4.0625,-1.875 6.875,-5 2.96875,-3.125 4.375,-7.1875 1.5625,-4.0625 1.5625,-8.43751 0,-4.375 -1.5625,-8.4375 -1.40625,-4.0625 -4.375,-7.1875 -2.8125,-3.125 -6.875,-5 -4.0625,-1.875 -9.21875,-1.875 -5.15625,0 -9.21875,1.875 -4.06251,1.875 -7.03126,5 -2.8125,3.125 -4.375,7.1875 -1.40625,4.0625 -1.40625,8.4375 z" />
        <path
           id="path4809"
           style=""
           d="m 491.78374,349.50507 -17.81251,0 0,-12.03126 -0.3125,0 q -2.65625,5.625 -8.125,9.84376 -5.46875,4.0625 -14.84375,4.0625 -7.50001,0 -12.81251,-2.34375 -5.15625,-2.5 -8.4375,-6.56251 -3.28125,-4.21875 -4.6875,-9.53125 -1.40625,-5.3125 -1.40625,-11.09375 l 0,-47.34377 18.75,0 0,37.96877 q 0,3.125 0.3125,7.03125 0.3125,3.75 1.5625,7.1875 1.40625,3.28125 4.0625,5.625 2.81251,2.1875 7.81251,2.1875 4.6875,0 7.8125,-1.5625 3.28125,-1.5625 5.3125,-4.21875 2.1875,-2.65625 3.125,-6.09375 0.9375,-3.4375 0.9375,-7.1875 l 0,-40.93752 18.75001,0 0,75.00003 z" />
        <path
           id="path4811"
           style=""
           d="m 504.31793,290.44255 0,-15.93751 15.46875,0 0,-21.71875 18.75001,0 0,21.71875 20.625,0 0,15.93751 -20.625,0 0,32.81251 q 0,5.625 2.03125,8.90625 2.1875,3.28125 8.4375,3.28125 2.5,0 5.46875,-0.46875 2.96875,-0.625 4.6875,-1.875 l 0,15.78126 q -2.96875,1.40625 -7.34375,1.875 -4.21875,0.625 -7.5,0.625 -7.50001,0 -12.34376,-1.71875 -4.6875,-1.5625 -7.5,-4.84376 -2.65625,-3.4375 -3.75,-8.4375 -0.9375,-5 -0.9375,-11.5625 l 0,-34.37501 -15.46875,0 z" />
      </g>
    </g>
  </g>
</svg>
