<?xml version="1.0" encoding="UTF-8" standalone="no"?>
<svg
   xmlns:dc="http://purl.org/dc/elements/1.1/"
   xmlns:cc="http://creativecommons.org/ns#"
   xmlns:rdf="http://www.w3.org/1999/02/22-rdf-syntax-ns#"
   xmlns:svg="http://www.w3.org/2000/svg"
   xmlns="http://www.w3.org/2000/svg"
   version="1.1"
   id="svg2"
   viewBox="0 0 531.98634 143.47905"
   height="40.492977mm"
   width="150.13837mm">
  <defs
     id="defs4" />
  <metadata
     id="metadata7">
    <rdf:RDF>
      <cc:Work
         rdf:about="">
        <dc:format>image/svg+xml</dc:format>
        <dc:type
           rdf:resource="http://purl.org/dc/dcmitype/StillImage" />
        <dc:title></dc:title>
      </cc:Work>
    </rdf:RDF>
  </metadata>
  <g
     transform="translate(-28.464294,-11.383133)"
     id="layer1">
    <g
       id="g4627">
      <g
         id="g4170">
        <g
           id="text3344"
           style="font-style:normal;font-variant:normal;font-weight:900;font-stretch:normal;font-size:45px;line-height:100%;font-family:Avenir;-inkscape-font-specification:'Avenir, Heavy';text-align:start;letter-spacing:0px;word-spacing:0px;writing-mode:lr-tb;text-anchor:start;fill:#ffffff;fill-opacity:1;stroke:none;stroke-width:1px;stroke-linecap:butt;stroke-linejoin:miter;stroke-opacity:1">
          <path
             id="path4244"
             style="font-style:normal;font-variant:normal;font-weight:900;font-stretch:normal;font-size:125px;line-height:100%;font-family:Avenir;-inkscape-font-specification:'Avenir, Heavy';text-align:start;writing-mode:lr-tb;text-anchor:start"
             d="m 28.464294,31.862183 15,0 0,94.499997 -15,0 z" />
          <path
             id="path4246"
             style="font-style:normal;font-variant:normal;font-weight:900;font-stretch:normal;font-size:125px;line-height:100%;font-family:Avenir;-inkscape-font-specification:'Avenir, Heavy';text-align:start;writing-mode:lr-tb;text-anchor:start"
             d="m 98.184998,118.11218 -0.375,0 c -2.166667,3.41667 -4.916667,5.91667 -8.25,7.5 -3.333333,1.5 -7,2.25 -11,2.25 -2.75,0 -5.458333,-0.375 -8.125,-1.125 -2.583333,-0.75 -4.916667,-1.875 -7,-3.375 -2,-1.5 -3.625,-3.375 -4.875,-5.625 -1.25,-2.25 -1.875,-4.875 -1.875,-7.875 0,-3.25 0.583333,-6 1.75,-8.25 1.166667,-2.333331 2.708333,-4.249997 4.625,-5.749997 2,-1.583333 4.291667,-2.833333 6.875,-3.75 2.583333,-0.916667 5.25,-1.583333 8,-2 2.833333,-0.5 5.666667,-0.791667 8.5,-0.875 2.833333,-0.166667 5.5,-0.25 8,-0.25 l 3.75,0 0,-1.625 c 0,-3.75 -1.291667,-6.541667 -3.875,-8.375 -2.583333,-1.916667 -5.875,-2.875 -9.875,-2.875 -3.166667,0 -6.125,0.583333 -8.875,1.75 -2.75,1.083333 -5.125,2.583333 -7.125,4.5 l -7.875,-7.875 c 3.333333,-3.416667 7.208333,-5.875 11.625,-7.375 4.5,-1.5 9.125,-2.25 13.875,-2.25 4.25,0 7.833333,0.5 10.75,1.5 2.916668,0.916667 5.333332,2.125 7.250002,3.625 1.91667,1.5 3.375,3.25 4.375,5.25 1.08333,1.916667 1.83333,3.875 2.25,5.875 0.5,2 0.79167,3.958333 0.875,5.875 0.0833,1.833333 0.125,3.458333 0.125,4.875 l 0,34.499997 -13.500002,0 z m -0.875,-18.624997 -3.125,0 c -2.083333,0 -4.416667,0.08333 -7,0.25 -2.583333,0.166667 -5.041667,0.583337 -7.375,1.249997 -2.25,0.58333 -4.166667,1.5 -5.75,2.75 -1.583333,1.16667 -2.375,2.83333 -2.375,5 0,1.41667 0.291667,2.625 0.875,3.625 0.666667,0.91667 1.5,1.70833 2.5,2.375 1,0.66667 2.125,1.16667 3.375,1.5 1.25,0.25 2.5,0.375 3.75,0.375 5.166667,0 8.958333,-1.20833 11.375,-3.625 2.5,-2.5 3.75,-5.875 3.75,-10.125 z" />
          <path
             id="path4248"
             style="font-style:normal;font-variant:normal;font-weight:900;font-stretch:normal;font-size:125px;line-height:100%;font-family:Avenir;-inkscape-font-specification:'Avenir, Heavy';text-align:start;writing-mode:lr-tb;text-anchor:start"
             d="m 127.19867,66.362183 14.25,0 0,9.375 0.25,0 c 1.33333,-2.833333 3.45833,-5.333333 6.375,-7.5 3,-2.25 7,-3.375 12,-3.375 9.41667,0 15.66667,3.708333 18.75,11.125 2.16667,-3.833333 4.875,-6.625 8.125,-8.375 3.25,-1.833333 7.125,-2.75 11.625,-2.75 4,0 7.375,0.666667 10.125,2 2.75,1.333333 4.95833,3.166667 6.625,5.5 1.75,2.333333 3,5.083333 3.75,8.25 0.75,3.083333 1.125,6.416667 1.125,10 l 0,35.749997 -15,0 0,-33.999997 c 0,-1.833333 -0.16667,-3.583333 -0.5,-5.25 -0.33333,-1.75 -0.91667,-3.25 -1.75,-4.5 -0.83333,-1.333333 -1.95833,-2.375 -3.375,-3.125 -1.41667,-0.75 -3.25,-1.125 -5.5,-1.125 -2.33333,0 -4.33333,0.458333 -6,1.375 -1.58333,0.833333 -2.91667,2 -4,3.5 -1,1.416667 -1.75,3.083333 -2.25,5 -0.41667,1.833333 -0.625,3.708333 -0.625,5.625 l 0,32.499997 -15,0 0,-35.749997 c 0,-3.75 -0.79167,-6.708333 -2.375,-8.875 -1.58333,-2.25 -4.20833,-3.375 -7.875,-3.375 -2.5,0 -4.625,0.416667 -6.375,1.25 -1.66667,0.833333 -3.08333,1.958333 -4.25,3.375 -1.08333,1.416667 -1.875,3.041667 -2.375,4.875 -0.5,1.833333 -0.75,3.75 -0.75,5.75 l 0,32.749997 -15,0 z" />
          <path
             id="path4250"
             style="font-style:normal;font-variant:normal;font-weight:900;font-stretch:normal;font-size:125px;line-height:100%;font-family:Avenir;-inkscape-font-specification:'Avenir, Heavy';text-align:start;writing-mode:lr-tb;text-anchor:start"
             d="m 236.46625,66.362183 14.25,0 0,9 0.25,0 c 2.16667,-3.666667 5.08333,-6.333333 8.75,-8 3.66667,-1.666667 7.625,-2.5 11.875,-2.5 4.58333,0 8.70833,0.833333 12.375,2.5 3.66667,1.583333 6.79167,3.791667 9.375,6.625 2.58333,2.833333 4.54167,6.166667 5.875,10 1.33333,3.833333 2,7.958333 2,12.375 0,4.416667 -0.70833,8.541667 -2.125,12.374997 -1.41667,3.83333 -3.41667,7.16667 -6,10 -2.5,2.83333 -5.54167,5.08333 -9.125,6.75 -3.58333,1.58333 -7.5,2.375 -11.75,2.375 -2.83333,0 -5.33333,-0.29167 -7.5,-0.875 -2.16667,-0.58333 -4.08333,-1.33333 -5.75,-2.25 -1.66667,-0.91667 -3.08333,-1.875 -4.25,-2.875 -1.16667,-1.08333 -2.125,-2.125 -2.875,-3.125 l -0.375,0 0,36.125 -15,0 z m 49.75,30 c 0,-2.333333 -0.41667,-4.583333 -1.25,-6.75 -0.75,-2.166667 -1.91667,-4.083333 -3.5,-5.75 -1.5,-1.666667 -3.33333,-3 -5.5,-4 -2.16667,-1 -4.625,-1.5 -7.375,-1.5 -2.75,0 -5.20833,0.5 -7.375,1.5 -2.16667,1 -4.04167,2.333333 -5.625,4 -1.5,1.666667 -2.66667,3.583333 -3.5,5.75 -0.75,2.166667 -1.125,4.416667 -1.125,6.75 0,2.333333 0.375,4.583337 1.125,6.749997 0.83333,2.16667 2,4.08333 3.5,5.75 1.58333,1.66667 3.45833,3 5.625,4 2.16667,1 4.625,1.5 7.375,1.5 2.75,0 5.20833,-0.5 7.375,-1.5 2.16667,-1 4,-2.33333 5.5,-4 1.58333,-1.66667 2.75,-3.58333 3.5,-5.75 0.83333,-2.16666 1.25,-4.416664 1.25,-6.749997 z" />
          <path
             id="path4252"
             style="font-style:normal;font-variant:normal;font-weight:900;font-stretch:normal;font-size:125px;line-height:100%;font-family:Avenir;-inkscape-font-specification:'Avenir, Heavy';text-align:start;writing-mode:lr-tb;text-anchor:start"
             d="m 316.69867,37.862183 29.75,0 c 4.25,0 8.33333,0.416667 12.25,1.25 4,0.833333 7.5,2.25 10.5,4.25 3,1.916667 5.375,4.541667 7.125,7.875 1.83333,3.25 2.75,7.333333 2.75,12.25 0,5.583333 -0.95833,10.083333 -2.875,13.5 -1.91667,3.416667 -4.5,6.083333 -7.75,8 -3.25,1.833333 -7.04167,3.083333 -11.375,3.75 -4.25,0.666667 -8.70833,1 -13.375,1 l -11.25,0 0,36.624997 -15.75,0 z m 25.25,38.375 c 2.25,0 4.58333,-0.08333 7,-0.25 2.41667,-0.166667 4.625,-0.666667 6.625,-1.5 2.08333,-0.833333 3.75,-2.083333 5,-3.75 1.33333,-1.666667 2,-4 2,-7 0,-2.75 -0.58333,-4.916667 -1.75,-6.5 -1.16667,-1.666667 -2.66667,-2.916667 -4.5,-3.75 -1.83333,-0.916667 -3.875,-1.5 -6.125,-1.75 -2.25,-0.25 -4.41667,-0.375 -6.5,-0.375 l -11.25,0 0,24.875 z" />
          <path
             id="path4254"
             style="font-style:normal;font-variant:normal;font-weight:900;font-stretch:normal;font-size:125px;line-height:100%;font-family:Avenir;-inkscape-font-specification:'Avenir, Heavy';text-align:start;writing-mode:lr-tb;text-anchor:start"
             d="m 388.73969,96.362183 c 0,-4.75 0.83333,-9.041667 2.5,-12.875 1.75,-3.916667 4.08333,-7.25 7,-10 2.91667,-2.75 6.375,-4.875 10.375,-6.375 4,-1.5 8.25,-2.25 12.75,-2.25 4.5,0 8.75,0.75 12.75,2.25 4,1.5 7.45833,3.625 10.375,6.375 2.91667,2.75 5.20833,6.083333 6.875,10 1.75,3.833333 2.625,8.125 2.625,12.875 0,4.749997 -0.875,9.083327 -2.625,12.999997 -1.66667,3.83333 -3.95833,7.125 -6.875,9.875 -2.91667,2.75 -6.375,4.875 -10.375,6.375 -4,1.5 -8.25,2.25 -12.75,2.25 -4.5,0 -8.75,-0.75 -12.75,-2.25 -4,-1.5 -7.45833,-3.625 -10.375,-6.375 -2.91667,-2.75 -5.25,-6.04167 -7,-9.875 -1.66667,-3.91667 -2.5,-8.25 -2.5,-12.999997 z m 15,0 c 0,2.333333 0.375,4.583337 1.125,6.749997 0.83333,2.16667 2,4.08333 3.5,5.75 1.58333,1.66667 3.45833,3 5.625,4 2.16667,1 4.625,1.5 7.375,1.5 2.75,0 5.20833,-0.5 7.375,-1.5 2.16667,-1 4,-2.33333 5.5,-4 1.58333,-1.66667 2.75,-3.58333 3.5,-5.75 0.83333,-2.16666 1.25,-4.416664 1.25,-6.749997 0,-2.333333 -0.41667,-4.583333 -1.25,-6.75 -0.75,-2.166667 -1.91667,-4.083333 -3.5,-5.75 -1.5,-1.666667 -3.33333,-3 -5.5,-4 -2.16667,-1 -4.625,-1.5 -7.375,-1.5 -2.75,0 -5.20833,0.5 -7.375,1.5 -2.16667,1 -4.04167,2.333333 -5.625,4 -1.5,1.666667 -2.66667,3.583333 -3.5,5.75 -0.75,2.166667 -1.125,4.416667 -1.125,6.75 z" />
          <path
             id="path4256"
             style="font-style:normal;font-variant:normal;font-weight:900;font-stretch:normal;font-size:125px;line-height:100%;font-family:Avenir;-inkscape-font-specification:'Avenir, Heavy';text-align:start;writing-mode:lr-tb;text-anchor:start"
             d="m 500.1557,82.987183 c -2.91667,-4.083333 -6.83333,-6.125 -11.75,-6.125 -2,0 -3.95833,0.5 -5.875,1.5 -1.91667,1 -2.875,2.625 -2.875,4.875 0,1.833333 0.79167,3.166667 2.375,4 1.58333,0.833333 3.58333,1.541667 6,2.125 2.41667,0.583333 5,1.208333 7.75,1.875 2.83333,0.583333 5.45833,1.541667 7.875,2.875 2.41667,1.25 4.41667,3 6,5.25 1.58333,2.249997 2.375,5.333327 2.375,9.249997 0,3.58333 -0.79167,6.625 -2.375,9.125 -1.5,2.41667 -3.5,4.375 -6,5.875 -2.41667,1.5 -5.16667,2.58333 -8.25,3.25 -3.08333,0.66667 -6.16667,1 -9.25,1 -4.66667,0 -8.95833,-0.66667 -12.875,-2 -3.91667,-1.33333 -7.41708,-3.74999 -10.50041,-7.24999 l 10.00041,-9.37501 c 1.91667,2.16667 3.95833,3.95833 6.125,5.375 2.25,1.33333 4.95833,2 8.125,2 1.08333,0 2.20833,-0.125 3.375,-0.375 1.16667,-0.25 2.25,-0.66667 3.25,-1.25 1,-0.58333 1.79167,-1.29167 2.375,-2.125 0.66667,-0.91667 1,-1.95833 1,-3.125 0,-2.08333 -0.79167,-3.625 -2.375,-4.625 -1.58333,-1 -3.58333,-1.79167 -6,-2.375 -2.41667,-0.66667 -5.04167,-1.25 -7.875,-1.75 -2.75,-0.58333 -5.33333,-1.458332 -7.75,-2.624997 -2.41667,-1.25 -4.41667,-2.958333 -6,-5.125 -1.58333,-2.166667 -2.375,-5.166667 -2.375,-9 0,-3.333333 0.66667,-6.208333 2,-8.625 1.41667,-2.5 3.25,-4.541667 5.5,-6.125 2.25,-1.583333 4.83333,-2.75 7.75,-3.5 2.91667,-0.75 5.875,-1.125 8.875,-1.125 4,0 7.95833,0.708333 11.875,2.125 3.91667,1.333333 7.08333,3.666667 9.5,7 z" />
          <path
             id="path4258"
             style="font-style:normal;font-variant:normal;font-weight:900;font-stretch:normal;font-size:125px;line-height:100%;font-family:Avenir;-inkscape-font-specification:'Avenir, Heavy';text-align:start;writing-mode:lr-tb;text-anchor:start"
             d="m 516.95062,127.86218 c 0,0 1.98165,-7.64336 3.99984,-9.24999 2.1957,-1.74794 7.99981,-1.1935 7.99983,-4 l 3.3e-4,-48.62501 -12.375,0 0,-12.75 12.375,0 0,-8.375 15,0 0,8.375 16.5,0 0,12.75 -16.5,0 0,48.62501 c 0,2.8065 5.80413,2.25205 7.99984,4 2.01819,1.60663 3.99983,9.24999 3.99983,9.24999" />
        </g>
        <g
           transform="translate(-0.28033009,-2.199301)"
           id="g4177">
          <g
             transform="translate(0,-4.625)"
             id="g4195">
            <g
               transform="matrix(2.9532234,0,0,2.9532234,-620.94938,-552.93661)"
               id="g4141">
              <path
                 style="fill:none;fill-rule:evenodd;stroke:#ffffff;stroke-width:1px;stroke-linecap:butt;stroke-linejoin:miter;stroke-opacity:1"
                 d="m 391.67217,197.89503 -5.56268,0 z"
                 id="path4179" />
              <path
                 style="fill:#ffffff;fill-opacity:1;fill-rule:nonzero;stroke:none;stroke-width:1px;stroke-linecap:butt;stroke-linejoin:miter;stroke-opacity:1"
                 d="m 385.91782,197.49526 c 0.0267,-0.0632 0.7032,-0.9796 1.50336,-2.03634 l 1.45485,-1.92136 1.49255,0 1.49258,0 0,2.03634 0,2.03634 -2.99593,0 c -1.64777,0 -2.97408,-0.0518 -2.94741,-0.11493 z"
                 id="path4139" />
            </g>
            <g
               id="g4169"
               transform="matrix(-2.9532234,0,0,2.9532234,1694.4101,-552.93661)">
              <path
                 id="path4171"
                 d="m 388.74183,193.89683 2.85764,0 0,11.42336 -1.61597,0 -4.17201,-7.42515 2.93034,-3.99821 6.52729,0 2.93034,3.99821 -4.17201,7.42515 -1.61597,0 0,-11.42336 2.85764,0"
                 style="fill:none;fill-rule:evenodd;stroke:#ffffff;stroke-width:1px;stroke-linecap:butt;stroke-linejoin:miter;stroke-opacity:1" />
              <path
                 id="path4173"
                 d="m 391.67217,197.89503 -5.56268,0 z"
                 style="fill:none;fill-rule:evenodd;stroke:#ffffff;stroke-width:1px;stroke-linecap:butt;stroke-linejoin:miter;stroke-opacity:1" />
              <path
                 id="path4175"
                 d="m 385.91782,197.49526 c 0.0267,-0.0632 0.7032,-0.9796 1.50336,-2.03634 l 1.45485,-1.92136 1.49255,0 1.49258,0 0,2.03634 0,2.03634 -2.99593,0 c -1.64777,0 -2.97408,-0.0518 -2.94741,-0.11493 z"
                 style="fill:#ffffff;fill-opacity:1;fill-rule:nonzero;stroke:none;stroke-width:1px;stroke-linecap:butt;stroke-linejoin:miter;stroke-opacity:1" />
            </g>
          </g>
        </g>
      </g>
    </g>
  </g>
</svg>
