<?xml version="1.0" encoding="UTF-8" standalone="no"?>
<svg
   xmlns:dc="http://purl.org/dc/elements/1.1/"
   xmlns:cc="http://creativecommons.org/ns#"
   xmlns:rdf="http://www.w3.org/1999/02/22-rdf-syntax-ns#"
   xmlns:svg="http://www.w3.org/2000/svg"
   xmlns="http://www.w3.org/2000/svg"
   version="1.1"
   id="svg2"
   viewBox="0 0 44.046002 116.47904"
   height="32.872974mm"
   width="12.43076mm">
  <defs
     id="defs4" />
  <metadata
     id="metadata7">
    <rdf:RDF>
      <cc:Work
         rdf:about="">
        <dc:format>image/svg+xml</dc:format>
        <dc:type
           rdf:resource="http://purl.org/dc/dcmitype/StillImage" />
        <dc:title></dc:title>
      </cc:Work>
    </rdf:RDF>
  </metadata>
  <g
     transform="translate(-508.40462,-11.383133)"
     id="layer1">
    <g
       id="g4627">
      <path
         id="path4258"
         style="font-style:normal;font-variant:normal;font-weight:900;font-stretch:normal;font-size:125px;line-height:100%;font-family:Avenir;-inkscape-font-specification:'Avenir, Heavy';text-align:start;letter-spacing:0px;word-spacing:0px;writing-mode:lr-tb;text-anchor:start;fill:#ffffff;fill-opacity:1;stroke:none;stroke-width:1px;stroke-linecap:butt;stroke-linejoin:miter;stroke-opacity:1"
         d="m 508.95062,127.86218 c 0,0 1.98165,-7.64336 3.99984,-9.24999 2.1957,-1.74794 7.99981,-1.1935 7.99983,-4 l 3.3e-4,-48.62501 -12.375,0 0,-12.75 12.375,0 0,-8.375 15,0 0,8.375 16.5,0 0,12.75 -16.5,0 0,48.62501 c 0,2.8065 5.80413,2.25205 7.99984,4 2.01819,1.60663 3.99983,9.24999 3.99983,9.24999" />
      <g
         id="g4177"
         transform="translate(-8.2803301,-2.199301)">
        <g
           id="g4195"
           transform="translate(0,-4.625)">
          <g
             id="g4141"
             transform="matrix(2.9532234,0,0,2.9532234,-620.94938,-552.93661)">
            <path
               id="path4179"
               d="m 391.67217,197.89503 -5.56268,0 z"
               style="fill:none;fill-rule:evenodd;stroke:#ffffff;stroke-width:1px;stroke-linecap:butt;stroke-linejoin:miter;stroke-opacity:1" />
            <path
               id="path4139"
               d="m 385.91782,197.49526 c 0.0267,-0.0632 0.7032,-0.9796 1.50336,-2.03634 l 1.45485,-1.92136 1.49255,0 1.49258,0 0,2.03634 0,2.03634 -2.99593,0 c -1.64777,0 -2.97408,-0.0518 -2.94741,-0.11493 z"
               style="fill:#ffffff;fill-opacity:1;fill-rule:nonzero;stroke:none;stroke-width:1px;stroke-linecap:butt;stroke-linejoin:miter;stroke-opacity:1" />
          </g>
          <g
             transform="matrix(-2.9532234,0,0,2.9532234,1694.4101,-552.93661)"
             id="g4169">
            <path
               style="fill:none;fill-rule:evenodd;stroke:#ffffff;stroke-width:1px;stroke-linecap:butt;stroke-linejoin:miter;stroke-opacity:1"
               d="m 388.74183,193.89683 2.85764,0 0,11.42336 -1.61597,0 -4.17201,-7.42515 2.93034,-3.99821 6.52729,0 2.93034,3.99821 -4.17201,7.42515 -1.61597,0 0,-11.42336 2.85764,0"
               id="path4171" />
            <path
               style="fill:none;fill-rule:evenodd;stroke:#ffffff;stroke-width:1px;stroke-linecap:butt;stroke-linejoin:miter;stroke-opacity:1"
               d="m 391.67217,197.89503 -5.56268,0 z"
               id="path4173" />
            <path
               style="fill:#ffffff;fill-opacity:1;fill-rule:nonzero;stroke:none;stroke-width:1px;stroke-linecap:butt;stroke-linejoin:miter;stroke-opacity:1"
               d="m 385.91782,197.49526 c 0.0267,-0.0632 0.7032,-0.9796 1.50336,-2.03634 l 1.45485,-1.92136 1.49255,0 1.49258,0 0,2.03634 0,2.03634 -2.99593,0 c -1.64777,0 -2.97408,-0.0518 -2.94741,-0.11493 z"
               id="path4175" />
          </g>
        </g>
      </g>
    </g>
  </g>
</svg>
