<?xml version="1.0" encoding="UTF-8" standalone="no"?>
<!-- Created with Inkscape (http://www.inkscape.org/) -->

<svg
   xmlns:dc="http://purl.org/dc/elements/1.1/"
   xmlns:cc="http://creativecommons.org/ns#"
   xmlns:rdf="http://www.w3.org/1999/02/22-rdf-syntax-ns#"
   xmlns:svg="http://www.w3.org/2000/svg"
   xmlns="http://www.w3.org/2000/svg"
   xmlns:sodipodi="http://sodipodi.sourceforge.net/DTD/sodipodi-0.dtd"
   xmlns:inkscape="http://www.inkscape.org/namespaces/inkscape"
   width="262.47305mm"
   height="33.866669mm"
   viewBox="0 0 930.0225 120.00004"
   id="svg4153"
   version="1.1"
   inkscape:version="0.91 r13725"
   sodipodi:docname="welcomeToAvenir.svg">
  <defs
     id="defs4155" />
  <sodipodi:namedview
     id="base"
     pagecolor="#c9c2ff"
     bordercolor="#666666"
     borderopacity="1.0"
     inkscape:pageopacity="0"
     inkscape:pageshadow="2"
     inkscape:zoom="1.4142136"
     inkscape:cx="742.96587"
     inkscape:cy="1.2562981"
     inkscape:document-units="px"
     inkscape:current-layer="layer1"
     showgrid="false"
     fit-margin-top="0"
     fit-margin-left="0"
     fit-margin-right="0"
     fit-margin-bottom="0"
     inkscape:window-width="1461"
     inkscape:window-height="913"
     inkscape:window-x="109"
     inkscape:window-y="0"
     inkscape:window-maximized="0"
     inkscape:snap-text-baseline="true" />
  <metadata
     id="metadata4158">
    <rdf:RDF>
      <cc:Work
         rdf:about="">
        <dc:format>image/svg+xml</dc:format>
        <dc:type
           rdf:resource="http://purl.org/dc/dcmitype/StillImage" />
        <dc:title></dc:title>
      </cc:Work>
    </rdf:RDF>
  </metadata>
  <g
     inkscape:label="Layer 1"
     inkscape:groupmode="layer"
     id="layer1"
     transform="translate(-105.71444,-231.38003)">
    <g
       id="g4917">
      <g
         id="text4701"
         style="font-style:normal;font-variant:normal;font-weight:900;font-stretch:normal;font-size:156.25003052px;line-height:100%;font-family:Avenir;-inkscape-font-specification:'Avenir, Heavy';text-align:start;letter-spacing:0px;word-spacing:0px;writing-mode:lr-tb;text-anchor:start;fill:#333333;fill-opacity:1;stroke:none;stroke-width:1px;stroke-linecap:butt;stroke-linejoin:miter;stroke-opacity:1">
        <path
           id="path4899"
           style=""
           d="m 105.71429,238.88004 21.5625,0 20.78126,79.68752 0.3125,0 24.84375,-79.68752 19.375,0 24.37501,79.68752 0.3125,0 21.71875,-79.68752 20.00001,0 -32.18751,110.62503 -18.75,0 -25.62501,-84.21877 -0.3125,0 -25.625,84.21877 -18.12501,0 -32.65625,-110.62503 z" />
        <path
           id="path4901"
           style=""
           d="m 281.94357,318.56756 q 0.9375,8.4375 6.5625,13.125 5.625,4.6875 13.59375,4.6875 7.03126,0 11.71876,-2.8125 4.84375,-2.96875 8.4375,-7.34375 l 13.4375,10.15625 q -6.5625,8.125 -14.6875,11.56251 -8.125,3.4375 -17.03126,3.4375 -8.4375,0 -15.9375,-2.8125 -7.5,-2.8125 -12.96875,-7.96876 -5.46875,-5.15625 -8.75,-12.34375 -3.125,-7.34375 -3.125,-16.25 0,-8.90625 3.125,-16.09375 3.28125,-7.34376 8.75,-12.50001 5.46875,-5.15625 12.96875,-7.96875 7.5,-2.8125 15.9375,-2.8125 7.81251,0 14.21876,2.8125 6.5625,2.65625 11.09375,7.8125 4.6875,5.15625 7.1875,12.81251 2.65625,7.5 2.65625,17.34375 l 0,5.15625 -57.18751,0 z m 38.43751,-14.0625 q -0.15625,-8.28125 -5.15625,-12.96876 -5,-4.84375 -13.90626,-4.84375 -8.4375,0 -13.4375,4.84375 -4.84375,4.84376 -5.9375,12.96876 l 38.43751,0 z" />
        <path
           id="path4903"
           style=""
           d="m 357.13035,231.38004 18.75,0 0,118.12503 -18.75,0 0,-118.12503 z" />
        <path
           id="path4905"
           style=""
           d="m 448.65625,297.00506 q -3.28125,-3.43751 -6.875,-5.46876 -3.59375,-2.03125 -7.34375,-2.03125 -5.15625,0 -9.21875,1.875 -4.0625,1.875 -7.03125,5.00001 -2.8125,3.125 -4.375,7.1875 -1.40625,4.0625 -1.40625,8.4375 0,4.375 1.40625,8.4375 1.5625,4.0625 4.375,7.1875 2.96875,3.125 7.03125,5 4.0625,1.875 9.21875,1.875 4.375,0 8.125,-1.71875 3.75,-1.875 6.40625,-5.3125 l 12.50001,13.4375 q -2.8125,2.8125 -6.5625,4.84376 -3.59376,2.03125 -7.34376,3.28125 -3.75,1.25 -7.1875,1.71875 -3.4375,0.625 -5.9375,0.625 -8.4375,0 -15.9375,-2.8125 -7.5,-2.8125 -12.96875,-7.96876 -5.46876,-5.15625 -8.75001,-12.34375 -3.125,-7.34375 -3.125,-16.25 0,-8.90625 3.125,-16.09375 3.28125,-7.34376 8.75001,-12.50001 Q 411,278.25505 418.5,275.44255 q 7.5,-2.8125 15.9375,-2.8125 7.1875,0 14.375,2.8125 7.34376,2.65625 12.81251,8.59375 l -12.96876,12.96876 z" />
        <path
           id="path4907"
           style=""
           d="m 469.03466,312.00506 q 0,-8.90625 3.125,-16.09375 3.28125,-7.34376 8.75,-12.50001 5.46876,-5.15625 12.96876,-7.96875 7.5,-2.8125 15.9375,-2.8125 8.4375,0 15.9375,2.8125 7.5,2.8125 12.96876,7.96875 5.46875,5.15625 8.59375,12.50001 3.28125,7.1875 3.28125,16.09375 0,8.90625 -3.28125,16.25 -3.125,7.1875 -8.59375,12.34375 -5.46876,5.15626 -12.96876,7.96876 -7.5,2.8125 -15.9375,2.8125 -8.4375,0 -15.9375,-2.8125 -7.5,-2.8125 -12.96876,-7.96876 -5.46875,-5.15625 -8.75,-12.34375 -3.125,-7.34375 -3.125,-16.25 z m 18.75001,0 q 0,4.375 1.40625,8.4375 1.5625,4.0625 4.375,7.1875 2.96875,3.125 7.03125,5 4.0625,1.875 9.21875,1.875 5.15625,0 9.21875,-1.875 4.0625,-1.875 6.875,-5 2.96875,-3.125 4.375,-7.1875 1.5625,-4.0625 1.5625,-8.4375 0,-4.375 -1.5625,-8.4375 -1.40625,-4.0625 -4.375,-7.1875 -2.8125,-3.12501 -6.875,-5.00001 -4.0625,-1.875 -9.21875,-1.875 -5.15625,0 -9.21875,1.875 -4.0625,1.875 -7.03125,5.00001 -2.8125,3.125 -4.375,7.1875 -1.40625,4.0625 -1.40625,8.4375 z" />
        <path
           id="path4909"
           style=""
           d="m 567.52346,274.50505 17.81251,0 0,11.71875 0.3125,0 q 2.5,-5.3125 7.96875,-9.375 5.625,-4.21875 15,-4.21875 17.65625,0 23.4375,13.90625 4.06251,-7.1875 10.15626,-10.46875 6.09375,-3.4375 14.53125,-3.4375 7.5,0 12.65625,2.5 5.15625,2.5 8.28125,6.875 3.28125,4.375 4.6875,10.3125 1.40626,5.78126 1.40626,12.50001 l 0,44.68751 -18.75001,0 0,-42.50001 q 0,-3.4375 -0.625,-6.5625 -0.625,-3.28125 -2.1875,-5.625 -1.5625,-2.50001 -4.21875,-3.90626 -2.65625,-1.40625 -6.875,-1.40625 -4.375,0 -7.5,1.71875 -2.96875,1.5625 -5,4.37501 -1.875,2.65625 -2.8125,6.25 -0.78125,3.4375 -0.78125,7.03125 l 0,40.62501 -18.75001,0 0,-44.68751 q 0,-7.03125 -2.96875,-11.09375 -2.96875,-4.21876 -9.84375,-4.21876 -4.6875,0 -7.96875,1.5625 -3.125,1.5625 -5.3125,4.21876 -2.03125,2.65625 -2.96875,6.09375 -0.9375,3.4375 -0.9375,7.1875 l 0,40.93751 -18.75001,0 0,-75.00002 z" />
        <path
           id="path4911"
           style=""
           d="m 719.10797,318.56756 q 0.9375,8.4375 6.5625,13.125 5.625,4.6875 13.59375,4.6875 7.03125,0 11.71875,-2.8125 4.84376,-2.96875 8.43751,-7.34375 l 13.4375,10.15625 q -6.5625,8.125 -14.6875,11.56251 -8.12501,3.4375 -17.03126,3.4375 -8.4375,0 -15.9375,-2.8125 -7.5,-2.8125 -12.96875,-7.96876 -5.46875,-5.15625 -8.75,-12.34375 -3.12501,-7.34375 -3.12501,-16.25 0,-8.90625 3.12501,-16.09375 3.28125,-7.34376 8.75,-12.50001 5.46875,-5.15625 12.96875,-7.96875 7.5,-2.8125 15.9375,-2.8125 7.8125,0 14.21876,2.8125 6.5625,2.65625 11.09375,7.8125 4.6875,5.15625 7.1875,12.81251 2.65625,7.5 2.65625,17.34375 l 0,5.15625 -57.18751,0 z m 38.43751,-14.0625 q -0.15625,-8.28125 -5.15625,-12.96876 -5.00001,-4.84375 -13.90626,-4.84375 -8.4375,0 -13.4375,4.84375 -4.84375,4.84376 -5.9375,12.96876 l 38.43751,0 z" />
        <path
           id="path4913"
           style=""
           d="m 831.46636,290.44255 0,-15.9375 15.46876,0 0,-21.71875 18.75,0 0,21.71875 20.625,0 0,15.9375 -20.625,0 0,32.81251 q 0,5.625 2.03125,8.90625 2.1875,3.28125 8.4375,3.28125 2.5,0 5.46875,-0.46875 2.96875,-0.625 4.6875,-1.875 l 0,15.78126 q -2.96875,1.40625 -7.34375,1.875 -4.21875,0.625 -7.5,0.625 -7.5,0 -12.34375,-1.71875 -4.6875,-1.5625 -7.5,-4.84375 -2.65625,-3.43751 -3.75,-8.43751 -0.9375,-5 -0.9375,-11.5625 l 0,-34.37501 -15.46876,0 z" />
        <path
           id="path4915"
           style=""
           d="m 897.19634,312.00506 q 0,-8.90625 3.125,-16.09375 3.28126,-7.34376 8.75001,-12.50001 5.46875,-5.15625 12.96875,-7.96875 7.5,-2.8125 15.9375,-2.8125 8.4375,0 15.9375,2.8125 7.50001,2.8125 12.96876,7.96875 5.46875,5.15625 8.59375,12.50001 3.28125,7.1875 3.28125,16.09375 0,8.90625 -3.28125,16.25 -3.125,7.1875 -8.59375,12.34375 -5.46875,5.15626 -12.96876,7.96876 -7.5,2.8125 -15.9375,2.8125 -8.4375,0 -15.9375,-2.8125 -7.5,-2.8125 -12.96875,-7.96876 -5.46875,-5.15625 -8.75001,-12.34375 -3.125,-7.34375 -3.125,-16.25 z m 18.75001,0 q 0,4.375 1.40625,8.4375 1.5625,4.0625 4.375,7.1875 2.96875,3.125 7.03125,5 4.0625,1.875 9.21875,1.875 5.15625,0 9.21875,-1.875 4.0625,-1.875 6.875,-5 2.96876,-3.125 4.37501,-7.1875 1.5625,-4.0625 1.5625,-8.4375 0,-4.375 -1.5625,-8.4375 -1.40625,-4.0625 -4.37501,-7.1875 -2.8125,-3.12501 -6.875,-5.00001 -4.0625,-1.875 -9.21875,-1.875 -5.15625,0 -9.21875,1.875 -4.0625,1.875 -7.03125,5.00001 -2.8125,3.125 -4.375,7.1875 -1.40625,4.0625 -1.40625,8.4375 z" />
      </g>
    </g>
  </g>
</svg>
