<?xml version="1.0" encoding="UTF-8" standalone="no"?>
<svg
   xmlns:dc="http://purl.org/dc/elements/1.1/"
   xmlns:cc="http://creativecommons.org/ns#"
   xmlns:rdf="http://www.w3.org/1999/02/22-rdf-syntax-ns#"
   xmlns:svg="http://www.w3.org/2000/svg"
   xmlns="http://www.w3.org/2000/svg"
   version="1.1"
   id="svg2"
   viewBox="0 0 1065.3183 92.999996"
   height="26.246666mm"
   width="300.65649mm">
  <defs
     id="defs4" />
  <metadata
     id="metadata7">
    <rdf:RDF>
      <cc:Work
         rdf:about="">
        <dc:format>image/svg+xml</dc:format>
        <dc:type
           rdf:resource="http://purl.org/dc/dcmitype/StillImage" />
        <dc:title></dc:title>
      </cc:Work>
    </rdf:RDF>
  </metadata>
  <g
     transform="translate(-147.78102,-141.89395)"
     id="layer1">
    <g
       id="g4627">
      <text
         id="text3353"
         y="81.323082"
         x="102.0034"
         style="font-style:normal;font-weight:normal;font-size:40px;line-height:125%;font-family:sans-serif;letter-spacing:0px;word-spacing:0px;fill:#000000;fill-opacity:1;stroke:none;stroke-width:1px;stroke-linecap:butt;stroke-linejoin:miter;stroke-opacity:1"
         xml:space="preserve"><tspan
           y="81.323082"
           x="102.0034"
           id="tspan3355" /></text>
      <g
         id="text3374"
         style="font-style:normal;font-variant:normal;font-weight:900;font-stretch:normal;font-size:125px;line-height:125%;font-family:Avenir;-inkscape-font-specification:'Avenir, Heavy';text-align:start;letter-spacing:0px;word-spacing:0px;writing-mode:lr-tb;text-anchor:start;fill:#000000;fill-opacity:1;stroke:none;stroke-width:1px;stroke-linecap:butt;stroke-linejoin:miter;stroke-opacity:1">
        <path
           id="path3400"
           style="font-style:normal;font-variant:normal;font-weight:900;font-stretch:normal;font-size:125px;line-height:125%;font-family:Avenir;-inkscape-font-specification:'Avenir, Heavy';text-align:start;writing-mode:lr-tb;text-anchor:start;fill:#ffffff"
           d="m 162.78102,207.89394 q 0.75,6.75 5.25,10.5 4.5,3.75 10.875,3.75 5.625,0 9.375,-2.25 3.875,-2.375 6.75,-5.875 l 10.75,8.125 q -5.25,6.5 -11.75,9.25 -6.5,2.75 -13.625,2.75 -6.75,0 -12.75,-2.25 -6,-2.25 -10.375,-6.375 -4.375,-4.125 -7,-9.875 -2.5,-5.875 -2.5,-13 0,-7.125 2.5,-12.875 2.625,-5.875 7,-10 4.375,-4.125 10.375,-6.375 6,-2.25 12.75,-2.25 6.25,0 11.375,2.25 5.25,2.125 8.875,6.25 3.75,4.125 5.75,10.25 2.125,6 2.125,13.875 l 0,4.125 -45.75,0 z m 30.75,-11.25 q -0.125,-6.625 -4.125,-10.375 -4,-3.875 -11.125,-3.875 -6.75,0 -10.75,3.875 -3.875,3.875 -4.75,10.375 l 30.75,0 z" />
        <path
           id="path3402"
           style="font-style:normal;font-variant:normal;font-weight:900;font-stretch:normal;font-size:125px;line-height:125%;font-family:Avenir;-inkscape-font-specification:'Avenir, Heavy';text-align:start;writing-mode:lr-tb;text-anchor:start;fill:#ffffff"
           d="m 214.43336,172.64394 16.375,0 16,42 0.25,0 16.125,-42 15.375,0 -23.625,60 -16,0 -24.5,-60 z" />
        <path
           id="path3404"
           style="font-style:normal;font-variant:normal;font-weight:900;font-stretch:normal;font-size:125px;line-height:125%;font-family:Avenir;-inkscape-font-specification:'Avenir, Heavy';text-align:start;writing-mode:lr-tb;text-anchor:start;fill:#ffffff"
           d="m 299.49977,207.89394 q 0.75,6.75 5.25,10.5 4.5,3.75 10.875,3.75 5.625,0 9.375,-2.25 3.875,-2.375 6.75,-5.875 l 10.75,8.125 q -5.25,6.5 -11.75,9.25 -6.5,2.75 -13.625,2.75 -6.75,0 -12.75,-2.25 -6,-2.25 -10.375,-6.375 -4.375,-4.125 -7,-9.875 -2.5,-5.875 -2.5,-13 0,-7.125 2.5,-12.875 2.625,-5.875 7,-10 4.375,-4.125 10.375,-6.375 6,-2.25 12.75,-2.25 6.25,0 11.375,2.25 5.25,2.125 8.875,6.25 3.75,4.125 5.75,10.25 2.125,6 2.125,13.875 l 0,4.125 -45.75,0 z m 30.75,-11.25 q -0.125,-6.625 -4.125,-10.375 -4,-3.875 -11.125,-3.875 -6.75,0 -10.75,3.875 -3.875,3.875 -4.75,10.375 l 30.75,0 z" />
        <path
           id="path3406"
           style="font-style:normal;font-variant:normal;font-weight:900;font-stretch:normal;font-size:125px;line-height:125%;font-family:Avenir;-inkscape-font-specification:'Avenir, Heavy';text-align:start;writing-mode:lr-tb;text-anchor:start;fill:#ffffff"
           d="m 359.27711,172.64394 14.25,0 0,9.625 0.25,0 q 2.125,-4.5 6.5,-7.75 4.375,-3.375 11.875,-3.375 6,0 10.125,2 4.25,2 6.875,5.25 2.625,3.25 3.75,7.5 1.125,4.25 1.125,8.875 l 0,37.875 -15,0 0,-30.375 q 0,-2.5 -0.25,-5.5 -0.25,-3.125 -1.375,-5.75 -1,-2.75 -3.25,-4.5 -2.25,-1.875 -6.125,-1.875 -3.75,0 -6.375,1.25 -2.5,1.25 -4.25,3.375 -1.625,2.125 -2.375,4.875 -0.75,2.75 -0.75,5.75 l 0,32.75 -15,0 0,-60 z" />
        <path
           id="path3408"
           style="font-style:normal;font-variant:normal;font-weight:900;font-stretch:normal;font-size:125px;line-height:125%;font-family:Avenir;-inkscape-font-specification:'Avenir, Heavy';text-align:start;writing-mode:lr-tb;text-anchor:start;fill:#ffffff"
           d="m 424.05446,185.39394 0,-12.75 12.375,0 0,-17.375 15,0 0,17.375 16.5,0 0,12.75 -16.5,0 0,26.25 q 0,4.5 1.625,7.125 1.75,2.625 6.75,2.625 2,0 4.375,-0.375 2.375,-0.5 3.75,-1.5 l 0,12.625 q -2.375,1.125 -5.875,1.5 -3.375,0.5 -6,0.5 -6,0 -9.875,-1.375 -3.75,-1.25 -6,-3.875 -2.125,-2.75 -3,-6.75 -0.75,-4 -0.75,-9.25 l 0,-27.5 -12.375,0 z" />
        <path
           id="path3410"
           style="font-style:normal;font-variant:normal;font-weight:900;font-stretch:normal;font-size:125px;line-height:125%;font-family:Avenir;-inkscape-font-specification:'Avenir, Heavy';text-align:start;writing-mode:lr-tb;text-anchor:start;fill:#ffffff"
           d="m 511.63844,189.26894 q -4.375,-6.125 -11.75,-6.125 -3,0 -5.875,1.5 -2.875,1.5 -2.875,4.875 0,2.75 2.375,4 2.375,1.25 6,2.125 3.625,0.875 7.75,1.875 4.25,0.875 7.875,2.875 3.625,1.875 6,5.25 2.375,3.375 2.375,9.25 0,5.375 -2.375,9.125 -2.25,3.625 -6,5.875 -3.625,2.25 -8.25,3.25 -4.625,1 -9.25,1 -7,0 -12.875,-2 -5.875,-2 -10.5,-7.25 l 10,-9.375 q 2.875,3.25 6.125,5.375 3.375,2 8.125,2 1.625,0 3.375,-0.375 1.75,-0.375 3.25,-1.25 1.5,-0.875 2.375,-2.125 1,-1.375 1,-3.125 0,-3.125 -2.375,-4.625 -2.375,-1.5 -6,-2.375 -3.625,-1 -7.875,-1.75 -4.125,-0.875 -7.75,-2.625 -3.625,-1.875 -6,-5.125 -2.375,-3.25 -2.375,-9 0,-5 2,-8.625 2.125,-3.75 5.5,-6.125 3.375,-2.375 7.75,-3.5 4.375,-1.125 8.875,-1.125 6,0 11.875,2.125 5.875,2 9.5,7 l -10,9 z" />
        <path
           id="path3412"
           style="font-style:normal;font-variant:normal;font-weight:900;font-stretch:normal;font-size:125px;line-height:125%;font-family:Avenir;-inkscape-font-specification:'Avenir, Heavy';text-align:start;writing-mode:lr-tb;text-anchor:start;fill:#ffffff"
           d="m 613.79274,175.64394 q -3.125,0 -5.625,1.25 -2.5,1.125 -4.25,3.25 -1.625,2 -2.5,4.75 -0.875,2.75 -0.875,5.875 0,1 0.125,3 0.25,1.875 1.125,3.75 1,1.875 3.125,3.375 2.125,1.375 6,1.375 3.5,0 5.875,-1.375 2.375,-1.375 3.75,-3.5 1.375,-2.25 1.875,-4.875 0.625,-2.75 0.625,-5.375 0,-5 -2.25,-8.25 -2.25,-3.25 -7,-3.25 z m 40.75,40.375 q -6.75,9.25 -16.875,14.125 -10,4.75 -21.5,4.75 -10,0 -18.875,-3.375 -8.75,-3.5 -15.375,-9.625 -6.625,-6.125 -10.5,-14.625 -3.75,-8.625 -3.75,-18.75 0,-10 3.75,-18.5 3.75,-8.5 10.25,-14.75 6.5,-6.25 15.125,-9.75 8.75,-3.625 18.625,-3.625 8.25,0 16.125,2.75 8,2.625 14.25,7.875 6.25,5.25 10,13 3.875,7.625 3.875,17.5 0,6.625 -1.625,11.5 -1.5,4.875 -4,8.25 -2.375,3.375 -5.5,5.5 -3,2.125 -6.125,3.25 -3,1.125 -5.875,1.625 -2.75,0.375 -4.625,0.375 -5.25,0 -7.5,-2.125 -2.25,-2.125 -2.375,-4.625 l -0.25,0 q -2.5,2.5 -6.25,4.625 -3.75,2.125 -9.75,2.125 -4,0 -7.375,-1.5 -3.25,-1.625 -5.625,-4.375 -2.375,-2.75 -3.75,-6.625 -1.25,-3.875 -1.25,-8.5 0,-5.5 1.75,-10.5 1.75,-5.125 4.875,-9 3.25,-4 7.875,-6.25 4.625,-2.375 10.5,-2.375 5,0 8.25,1.625 3.375,1.625 5.25,5.5 l 0.25,0 1,-5.625 11.75,0 -4.625,24.625 q -0.375,1.75 -0.75,3.5 -0.375,1.75 -0.375,3.625 0,2.25 0.625,3.5 0.75,1.125 2.75,1.125 2,0 3.875,-1 2,-1.125 3.5,-3.375 1.5,-2.375 2.375,-5.875 1,-3.5 1,-8.375 0,-7.5 -2.5,-13.125 -2.375,-5.75 -6.75,-9.625 -4.25,-3.875 -10.25,-5.75 -6,-2 -13.125,-2 -7.75,0 -14.125,2.625 -6.375,2.625 -11,7.375 -4.5,4.75 -7,11.25 -2.5,6.5 -2.5,14.125 0,8.25 2.75,14.75 2.75,6.5 7.625,11 5,4.5 11.75,7 6.75,2.375 14.625,2.375 7.125,0 13,-2 6,-2 10.625,-5.625 l 13.75,0 z" />
        <path
           id="path3414"
           style="font-style:normal;font-variant:normal;font-weight:900;font-stretch:normal;font-size:125px;line-height:125%;font-family:Avenir;-inkscape-font-specification:'Avenir, Heavy';text-align:start;writing-mode:lr-tb;text-anchor:start;fill:#ffffff"
           d="m 673.39626,144.14394 29.75,0 q 6.375,0 12.25,1.25 6,1.25 10.5,4.25 4.5,2.875 7.125,7.875 2.75,4.875 2.75,12.25 0,8.375 -2.875,13.5 -2.875,5.125 -7.75,8 -4.875,2.75 -11.375,3.75 -6.375,1 -13.375,1 l -11.25,0 0,36.625 -15.75,0 0,-88.5 z m 25.25,38.375 q 3.375,0 7,-0.25 3.625,-0.25 6.625,-1.5 3.125,-1.25 5,-3.75 2,-2.5 2,-7 0,-4.125 -1.75,-6.5 -1.75,-2.5 -4.5,-3.75 -2.75,-1.375 -6.125,-1.75 -3.375,-0.375 -6.5,-0.375 l -11.25,0 0,24.875 9.5,0 z" />
        <path
           id="path3416"
           style="font-style:normal;font-variant:normal;font-weight:900;font-stretch:normal;font-size:125px;line-height:125%;font-family:Avenir;-inkscape-font-specification:'Avenir, Heavy';text-align:start;writing-mode:lr-tb;text-anchor:start;fill:#ffffff"
           d="m 748.43727,172.64394 15,0 0,9.5 0.25,0 q 2.5,-5.25 7.125,-8.125 4.625,-2.875 10.625,-2.875 1.375,0 2.625,0.25 1.375,0.25 2.75,0.625 l 0,14.5 q -1.875,-0.5 -3.75,-0.75 -1.75,-0.375 -3.5,-0.375 -5.25,0 -8.5,2 -3.125,1.875 -4.875,4.375 -1.625,2.5 -2.25,5 -0.5,2.5 -0.5,3.75 l 0,32.125 -15,0 0,-60 z" />
        <path
           id="path3418"
           style="font-style:normal;font-variant:normal;font-weight:900;font-stretch:normal;font-size:125px;line-height:125%;font-family:Avenir;-inkscape-font-specification:'Avenir, Heavy';text-align:start;writing-mode:lr-tb;text-anchor:start;fill:#ffffff"
           d="m 797.27126,172.64394 15,0 0,60 -15,0 0,-60 z m -2.125,-20.375 q 0,-3.625 2.625,-6.25 2.75,-2.75 6.875,-2.75 4.125,0 6.875,2.625 2.875,2.5 2.875,6.375 0,3.875 -2.875,6.5 -2.75,2.5 -6.875,2.5 -4.125,0 -6.875,-2.625 -2.625,-2.75 -2.625,-6.375 z" />
        <path
           id="path3420"
           style="font-style:normal;font-variant:normal;font-weight:900;font-stretch:normal;font-size:125px;line-height:125%;font-family:Avenir;-inkscape-font-specification:'Avenir, Heavy';text-align:start;writing-mode:lr-tb;text-anchor:start;fill:#ffffff"
           d="m 829.49196,172.64394 14.25,0 0,9.625 0.25,0 q 2.125,-4.5 6.5,-7.75 4.375,-3.375 11.875,-3.375 6,0 10.125,2 4.25,2 6.875,5.25 2.625,3.25 3.75,7.5 1.125,4.25 1.125,8.875 l 0,37.875 -15,0 0,-30.375 q 0,-2.5 -0.25,-5.5 -0.25,-3.125 -1.375,-5.75 -1,-2.75 -3.25,-4.5 -2.25,-1.875 -6.125,-1.875 -3.75,0 -6.375,1.25 -2.5,1.25 -4.25,3.375 -1.625,2.125 -2.375,4.875 -0.75,2.75 -0.75,5.75 l 0,32.75 -15,0 0,-60 z" />
        <path
           id="path3422"
           style="font-style:normal;font-variant:normal;font-weight:900;font-stretch:normal;font-size:125px;line-height:125%;font-family:Avenir;-inkscape-font-specification:'Avenir, Heavy';text-align:start;writing-mode:lr-tb;text-anchor:start;fill:#ffffff"
           d="m 942.2693,190.64394 q -2.625,-2.75 -5.5,-4.375 -2.875,-1.625 -5.875,-1.625 -4.125,0 -7.375,1.5 -3.25,1.5 -5.625,4 -2.25,2.5 -3.5,5.75 -1.125,3.25 -1.125,6.75 0,3.5 1.125,6.75 1.25,3.25 3.5,5.75 2.375,2.5 5.625,4 3.25,1.5 7.375,1.5 3.5,0 6.5,-1.375 3,-1.5 5.125,-4.25 l 10,10.75 q -2.25,2.25 -5.25,3.875 -2.875,1.625 -5.875,2.625 -3,1 -5.75,1.375 -2.75,0.5 -4.75,0.5 -6.75,0 -12.75,-2.25 -6,-2.25 -10.375,-6.375 -4.375,-4.125 -7,-9.875 -2.5,-5.875 -2.5,-13 0,-7.125 2.5,-12.875 2.625,-5.875 7,-10 4.375,-4.125 10.375,-6.375 6,-2.25 12.75,-2.25 5.75,0 11.5,2.25 5.875,2.125 10.25,6.875 l -10.375,10.375 z" />
        <path
           id="path3424"
           style="font-style:normal;font-variant:normal;font-weight:900;font-stretch:normal;font-size:125px;line-height:125%;font-family:Avenir;-inkscape-font-specification:'Avenir, Heavy';text-align:start;writing-mode:lr-tb;text-anchor:start;fill:#ffffff"
           d="m 973.57204,207.89394 q 0.75,6.75 5.25,10.5 4.5,3.75 10.875,3.75 5.625,0 9.375,-2.25 3.87496,-2.375 6.74996,-5.875 l 10.75,8.125 q -5.25,6.5 -11.75,9.25 -6.49996,2.75 -13.62496,2.75 -6.75,0 -12.75,-2.25 -6,-2.25 -10.375,-6.375 -4.375,-4.125 -7,-9.875 -2.5,-5.875 -2.5,-13 0,-7.125 2.5,-12.875 2.625,-5.875 7,-10 4.375,-4.125 10.375,-6.375 6,-2.25 12.75,-2.25 6.25,0 11.37496,2.25 5.25,2.125 8.875,6.25 3.75,4.125 5.75,10.25 2.125,6 2.125,13.875 l 0,4.125 -45.74996,0 z m 30.74996,-11.25 q -0.125,-6.625 -4.125,-10.375 -3.99996,-3.875 -11.12496,-3.875 -6.75,0 -10.75,3.875 -3.875,3.875 -4.75,10.375 l 30.74996,0 z" />
        <path
           id="path3426"
           style="font-style:normal;font-variant:normal;font-weight:900;font-stretch:normal;font-size:125px;line-height:125%;font-family:Avenir;-inkscape-font-specification:'Avenir, Heavy';text-align:start;writing-mode:lr-tb;text-anchor:start;fill:#ffffff"
           d="m 1026.3494,185.39394 0,-12.75 12.375,0 0,-17.375 15,0 0,17.375 16.5,0 0,12.75 -16.5,0 0,26.25 q 0,4.5 1.625,7.125 1.75,2.625 6.75,2.625 2,0 4.375,-0.375 2.375,-0.5 3.75,-1.5 l 0,12.625 q -2.375,1.125 -5.875,1.5 -3.375,0.5 -6,0.5 -6,0 -9.875,-1.375 -3.75,-1.25 -6,-3.875 -2.125,-2.75 -3,-6.75 -0.75,-4 -0.75,-9.25 l 0,-27.5 -12.375,0 z" />
        <path
           id="path3428"
           style="font-style:normal;font-variant:normal;font-weight:900;font-stretch:normal;font-size:125px;line-height:125%;font-family:Avenir;-inkscape-font-specification:'Avenir, Heavy';text-align:start;writing-mode:lr-tb;text-anchor:start;fill:#ffffff"
           d="m 1078.9334,202.64394 q 0,-7.125 2.5,-12.875 2.625,-5.875 7,-10 4.375,-4.125 10.375,-6.375 6,-2.25 12.75,-2.25 6.75,0 12.75,2.25 6,2.25 10.375,6.375 4.375,4.125 6.875,10 2.625,5.75 2.625,12.875 0,7.125 -2.625,13 -2.5,5.75 -6.875,9.875 -4.375,4.125 -10.375,6.375 -6,2.25 -12.75,2.25 -6.75,0 -12.75,-2.25 -6,-2.25 -10.375,-6.375 -4.375,-4.125 -7,-9.875 -2.5,-5.875 -2.5,-13 z m 15,0 q 0,3.5 1.125,6.75 1.25,3.25 3.5,5.75 2.375,2.5 5.625,4 3.25,1.5 7.375,1.5 4.125,0 7.375,-1.5 3.25,-1.5 5.5,-4 2.375,-2.5 3.5,-5.75 1.25,-3.25 1.25,-6.75 0,-3.5 -1.25,-6.75 -1.125,-3.25 -3.5,-5.75 -2.25,-2.5 -5.5,-4 -3.25,-1.5 -7.375,-1.5 -4.125,0 -7.375,1.5 -3.25,1.5 -5.625,4 -2.25,2.5 -3.5,5.75 -1.125,3.25 -1.125,6.75 z" />
        <path
           id="path3430"
           style="font-style:normal;font-variant:normal;font-weight:900;font-stretch:normal;font-size:125px;line-height:125%;font-family:Avenir;-inkscape-font-specification:'Avenir, Heavy';text-align:start;writing-mode:lr-tb;text-anchor:start;fill:#ffffff"
           d="m 1158.3494,172.64394 14.25,0 0,9.625 0.25,0 q 2.125,-4.5 6.5,-7.75 4.375,-3.375 11.875,-3.375 6,0 10.125,2 4.25,2 6.875,5.25 2.625,3.25 3.75,7.5 1.125,4.25 1.125,8.875 l 0,37.875 -15,0 0,-30.375 q 0,-2.5 -0.25,-5.5 -0.25,-3.125 -1.375,-5.75 -1,-2.75 -3.25,-4.5 -2.25,-1.875 -6.125,-1.875 -3.75,0 -6.375,1.25 -2.5,1.25 -4.25,3.375 -1.625,2.125 -2.375,4.875 -0.75,2.75 -0.75,5.75 l 0,32.75 -15,0 0,-60 z" />
      </g>
    </g>
  </g>
</svg>
